<svg width="24" height="24" viewBox="0 0 24 24" fill="none" xmlns="http://www.w3.org/2000/svg">
<path fill-rule="evenodd" clip-rule="evenodd" d="M11.9985 20C11.999 20 11.9995 20 12 20C12.0005 20 12.001 20 12.0014 20L12.0014 20H12.003C12.3187 19.9977 13.1538 19.6432 14.1953 18.9852C14.0759 18.7269 13.9117 18.4914 13.7101 18.2898C13.4856 18.0652 13.2189 17.8871 12.9255 17.7656C12.6321 17.644 12.3176 17.5815 12 17.5815C11.6824 17.5815 11.3679 17.644 11.0744 17.7656C10.781 17.8871 10.5144 18.0652 10.2898 18.2898C10.0882 18.4914 9.92404 18.7269 9.80463 18.9852C10.8461 19.6432 11.6813 19.9977 11.997 20H11.9985L11.9985 20Z" fill="black"/>
<path fill-rule="evenodd" clip-rule="evenodd" d="M14.1923 18.9871C14.0731 18.729 13.9091 18.4938 13.7076 18.2923C13.4834 18.0681 13.2172 17.8902 12.9242 17.7688C12.6312 17.6475 12.3171 17.585 12 17.585C11.6829 17.585 11.3688 17.6475 11.0758 17.7688C10.7828 17.8902 10.5166 18.0681 10.2923 18.2923C10.0909 18.4938 9.92692 18.729 9.80767 18.9871C9.20087 18.604 8.52388 18.1178 7.83868 17.5382C8.04462 17.1901 8.29388 16.8684 8.58114 16.5811C9.03011 16.1322 9.56311 15.776 10.1497 15.5331C10.7363 15.2901 11.3651 15.165 12 15.165C12.6349 15.165 13.2637 15.2901 13.8503 15.5331C14.4369 15.776 14.9699 16.1322 15.4188 16.5811C15.7061 16.8684 15.9554 17.1901 16.1613 17.5382C15.4761 18.1178 14.7991 18.604 14.1923 18.9871Z" fill="#B9B9B9"/>
<path fill-rule="evenodd" clip-rule="evenodd" d="M16.1586 17.5405C15.9527 17.1924 15.7035 16.8708 15.4163 16.5836C14.9677 16.135 14.4351 15.7791 13.8489 15.5363C13.2627 15.2935 12.6345 15.1686 12 15.1686C11.3655 15.1686 10.7372 15.2935 10.1511 15.5363C9.56489 15.7791 9.03228 16.135 8.58364 16.5836C8.29644 16.8708 8.04726 17.1924 7.84142 17.5405C7.24484 17.036 6.64198 16.4608 6.07376 15.8211C6.31185 15.4834 6.57892 15.166 6.87244 14.8725C7.5458 14.1991 8.34519 13.665 9.22498 13.3005C10.1048 12.9361 11.0477 12.7486 12 12.7486C12.9523 12.7486 13.8952 12.9361 14.775 13.3005C15.6548 13.665 16.4542 14.1991 17.1275 14.8724C17.4211 15.166 17.6881 15.4834 17.9262 15.8211C17.358 16.4608 16.7551 17.036 16.1586 17.5405Z" fill="white"/>
<path fill-rule="evenodd" clip-rule="evenodd" d="M17.9224 15.8254C17.6843 15.4877 17.4171 15.1701 17.1235 14.8765C16.4507 14.2036 15.6519 13.6699 14.7728 13.3058C13.8937 12.9416 12.9515 12.7542 12 12.7542C11.0485 12.7542 10.1063 12.9416 9.22717 13.3058C8.34807 13.6699 7.54931 14.2036 6.87648 14.8765C6.58287 15.1701 6.31575 15.4877 6.07766 15.8254C5.53246 15.2121 5.01906 14.5395 4.57358 13.8133C4.76058 13.5888 4.95798 13.3726 5.16528 13.1653C6.06283 12.2677 7.12837 11.5557 8.30108 11.07C9.47378 10.5842 10.7307 10.3342 12 10.3342C13.2693 10.3342 14.5262 10.5842 15.6989 11.07C16.8716 11.5557 17.9372 12.2677 18.8347 13.1653C19.042 13.3726 19.2394 13.5888 19.4264 13.8133C18.981 14.5395 18.4676 15.2121 17.9224 15.8254Z" fill="#C5F391"/>
<path fill-rule="evenodd" clip-rule="evenodd" d="M19.4261 13.8138C19.2391 13.5893 19.0416 13.373 18.8343 13.1657C17.9368 12.2682 16.8713 11.5563 15.6987 11.0705C14.5261 10.5848 13.2692 10.3348 12 10.3348C10.7307 10.3348 9.47393 10.5848 8.30129 11.0705C7.12866 11.5563 6.06318 12.2682 5.16569 13.1657C4.95835 13.373 4.76092 13.5893 4.5739 13.8138C4.12188 13.077 3.73977 12.285 3.46527 11.4437C4.58523 10.3266 5.91365 9.44015 7.3752 8.83475C8.82969 8.23228 10.3878 7.91985 11.9618 7.91489C11.987 8.11764 12.0001 8.32724 12.0001 8.54342C12.0012 8.32724 12.0152 8.11765 12.0412 7.9149C13.6142 7.92025 15.1712 8.23267 16.6248 8.83475C18.0863 9.44015 19.4148 10.3266 20.5347 11.4437C20.2602 12.2851 19.8781 13.0771 19.4261 13.8138Z" fill="white"/>
<path fill-rule="evenodd" clip-rule="evenodd" d="M20.9998 8.63273C20.993 9.62228 20.8225 10.5639 20.5325 11.4507C19.4126 10.333 18.0841 9.44626 16.6223 8.84077C15.1693 8.23891 13.6128 7.92666 12.0403 7.92141C12.1609 6.96927 12.5442 6.16763 13.0889 5.54229C14.6201 5.65761 16.1255 6.01561 17.5484 6.60498C18.7896 7.11909 19.9507 7.80215 20.9998 8.63273ZM3.00021 8.63272C4.04928 7.80215 5.21043 7.11909 6.4516 6.60498C7.87592 6.01501 9.38303 5.65687 10.9158 5.54193C11.4625 6.16733 11.8458 6.96908 11.9627 7.9214C10.3892 7.92626 8.83165 8.23853 7.3777 8.84077C5.91592 9.44626 4.58739 10.333 3.46754 11.4507C3.1775 10.5639 3.00699 9.62227 3.00021 8.63272Z" fill="#B9B9B9"/>
<path fill-rule="evenodd" clip-rule="evenodd" d="M10.9203 5.54714C10.0517 4.55036 8.76839 4 7.48504 4C5.8125 4 3 5.14286 3 8.57143C3 8.59422 3.00009 8.61699 3.00026 8.63974C4.04981 7.80827 5.21168 7.12456 6.45372 6.61009C7.87877 6.01982 9.38673 5.6617 10.9203 5.54714ZM20.9997 8.63973C19.9502 7.80827 18.7883 7.12456 17.5463 6.61009C16.1227 6.02042 14.6164 5.66244 13.0844 5.54749C13.95 4.55049 15.225 4 16.5 4C18.1875 4 21 4.91429 21 8.57143C21 8.59422 20.9999 8.61699 20.9997 8.63973Z" fill="black"/>
</svg>
