<?xml version="1.0" standalone="no"?>
<!DOCTYPE svg PUBLIC "-//W3C//DTD SVG 20010904//EN"
 "http://www.w3.org/TR/2001/REC-SVG-20010904/DTD/svg10.dtd">
<svg version="1.0" xmlns="http://www.w3.org/2000/svg"
 width="32.000000pt" height="32.000000pt" viewBox="0 0 32.000000 32.000000"
 preserveAspectRatio="xMidYMid meet">

<g transform="translate(0.000000,32.000000) scale(0.100000,-0.100000)"
fill="#000000" stroke="none">
<path d="M0 220 l0 -60 40 0 c27 0 40 -4 40 -14 0 -17 -49 -66 -66 -66 -8 0
-14 -9 -14 -21 0 -16 4 -19 23 -14 69 21 97 69 97 170 l0 65 -60 0 -60 0 0
-60z"/>
<path d="M200 220 l0 -60 40 0 c27 0 40 -4 40 -14 0 -17 -49 -66 -66 -66 -8 0
-14 -9 -14 -21 0 -16 4 -19 23 -14 69 21 97 69 97 170 l0 65 -60 0 -60 0 0
-60z"/>
</g>
</svg>
