<svg width="24" height="24" viewBox="0 0 24 24" fill="none" xmlns="http://www.w3.org/2000/svg">
<path fill-rule="evenodd" clip-rule="evenodd" d="M5 4C3.89543 4 3 4.89543 3 6V15C3 15.048 3.00169 15.0957 3.00502 15.1429H3.00502C3.0187 15.3367 3.06 15.5229 3.125 15.6975C3.38534 16.3971 4.02593 16.9115 4.79551 16.9897C4.86275 16.9965 4.93096 17 5 17H9.5L11.5528 20.1056C11.737 20.4741 12.263 20.4741 12.4472 20.1056L14.5 17H19L19.0042 17C20.0379 16.9978 20.8874 16.2116 20.9897 15.2045C20.9965 15.1373 21 15.069 21 15V6C21 4.89543 20.1046 4 19 4H5ZM8 9C8 12 11.5 14 12 14C12.5 14 16 12 16 9C16 7.4 14.75 7 14 7C13.0033 7 12.0065 7.7451 12 8.98775C12.0001 7.7451 10.9967 7 9.99335 7C9.25 7 8 7.5 8 9Z" fill="#78C1FF"/>
<path fill-rule="evenodd" clip-rule="evenodd" d="M10.6201 13.2857C11.2646 13.7469 11.8221 14 12 14C12.1779 14 12.7354 13.7469 13.3799 13.2857H21V15C21 15.048 20.9983 15.0957 20.995 15.1428H3.00502C3.00169 15.0957 3 15.048 3 15V13.2857H10.6201Z" fill="#78C1FF"/>
<path fill-rule="evenodd" clip-rule="evenodd" d="M10.6201 13.2857C10.003 12.8442 9.3062 12.212 8.78637 11.4286H3V13.2857H10.6201ZM13.3799 13.2857H21V11.4286H15.2136C14.6938 12.212 13.997 12.8442 13.3799 13.2857Z" fill="#F391BD"/>
<path fill-rule="evenodd" clip-rule="evenodd" d="M8.78637 11.4286C8.42192 10.8793 8.14446 10.2557 8.04248 9.57141H3V11.4286H8.78637ZM15.2136 11.4286H21V9.57141H15.9575C15.8555 10.2557 15.5781 10.8793 15.2136 11.4286Z" fill="#F391BD"/>
<path fill-rule="evenodd" clip-rule="evenodd" d="M8.04248 9.57144C8.01475 9.38536 8 9.1948 8 9.00002C8 8.44133 8.17341 8.02137 8.42945 7.71429H3V9.57144H8.04248ZM15.9575 9.57144H21V7.71429H15.606C15.8426 8.0156 16 8.43225 16 9.00002C16 9.1948 15.9852 9.38536 15.9575 9.57144ZM12.4499 7.71429H11.5524C11.8268 8.04106 12 8.47147 12 8.98776C12.0027 8.47146 12.1764 8.04106 12.4499 7.71429Z" fill="#F391BD"/>
<path fill-rule="evenodd" clip-rule="evenodd" d="M3.00502 5.85715H20.995C20.9983 5.90433 21 5.95197 21 6V7.71429H15.606C15.1758 7.16649 14.4839 7 14 7C13.4174 7 12.8348 7.25458 12.4499 7.71429H11.5524C11.1663 7.25458 10.5798 7 9.99335 7C9.52686 7 8.86085 7.19691 8.42944 7.71429H3V6C3 5.95197 3.00169 5.90433 3.00502 5.85715Z" fill="#78C1FF"/>
<path fill-rule="evenodd" clip-rule="evenodd" d="M3.00502 5.85714H20.995C20.9217 4.81925 20.0565 4 19 4H5C3.94346 4 3.07827 4.81925 3.00502 5.85714Z" fill="#78C1FF"/>
</svg>
