<svg width="563" height="153" viewBox="0 0 563 153" fill="none" xmlns="http://www.w3.org/2000/svg">
<path d="M20.7217 93.4395V153H0.65918V0.859375H56.7715C73.4206 0.859375 86.4473 5.10872 95.8516 13.6074C105.326 22.1061 110.062 33.3564 110.062 47.3584C110.062 62.1266 105.43 73.5163 96.165 81.5273C86.9697 89.4688 73.7689 93.4395 56.5625 93.4395H20.7217ZM20.7217 77.0342H56.7715C67.4993 77.0342 75.7194 74.5264 81.4316 69.5107C87.1439 64.4255 90 57.111 90 47.5674C90 38.5114 87.1439 31.2666 81.4316 25.833C75.7194 20.3994 67.8825 17.5781 57.9209 17.3691H20.7217V77.0342ZM191.462 91.4541H155.726V153H135.559V0.859375H185.924C203.061 0.859375 216.227 4.76042 225.422 12.5625C234.687 20.3646 239.319 31.7194 239.319 46.627C239.319 56.1009 236.742 64.3558 231.587 71.3916C226.502 78.4274 219.396 83.6868 210.271 87.1699L246.007 151.746V153H224.481L191.462 91.4541ZM155.726 75.0488H186.551C196.512 75.0488 204.419 72.4714 210.271 67.3164C216.192 62.1615 219.152 55.265 219.152 46.627C219.152 37.2227 216.331 30.0127 210.688 24.9971C205.116 19.9814 197.035 17.4388 186.446 17.3691H155.726V75.0488ZM289.058 153H268.995V0.859375H289.058V153ZM325.839 153V0.859375H368.785C382.021 0.859375 393.724 3.78516 403.895 9.63672C414.065 15.4883 421.902 23.8128 427.405 34.6104C432.978 45.4079 435.799 57.8076 435.869 71.8096V81.5273C435.869 95.8776 433.083 108.451 427.51 119.249C422.007 130.047 414.1 138.336 403.79 144.118C393.55 149.9 381.603 152.861 367.949 153H325.839ZM345.901 17.3691V136.595H367.009C382.474 136.595 394.49 131.788 403.059 122.175C411.697 112.562 416.016 98.873 416.016 81.1094V72.2275C416.016 54.9515 411.94 41.5417 403.79 31.998C395.709 22.3848 384.215 17.5085 369.308 17.3691H345.901ZM552.273 82.6768H486.339V136.595H562.932V153H466.276V0.859375H561.887V17.3691H486.339V66.2715H552.273V82.6768Z" fill="#F2F2F2"/>
</svg>
