<svg width="292" height="219" viewBox="0 0 292 219" fill="none" xmlns="http://www.w3.org/2000/svg">
<path d="M0.166656 30.0833C0.166656 13.975 13.225 0.916649 29.3333 0.916649H262.667C278.775 0.916649 291.833 13.975 291.833 30.0833V41.75H0.166656V30.0833Z" fill="#78C1FF"/>
<path d="M291.833 41.75H0.166656V82.5833H291.833V41.75Z" fill="#F391BD"/>
<path d="M291.833 82.5833H0.166656V123.417H291.833V82.5833Z" fill="white"/>
<path d="M291.833 123.417H0.166656V164.25H291.833V123.417Z" fill="#F391BD"/>
<path d="M0.166656 164.25H291.833V175.917C291.833 192.025 278.775 205.083 262.667 205.083H29.3333C13.225 205.083 0.166656 192.025 0.166656 175.917V164.25Z" fill="#78C1FF"/>
<path d="M198.561 133.859C196.109 131.144 194.03 128.114 192.378 124.85C189.768 119.735 186.16 115.193 181.768 111.493C177.375 107.793 172.286 105.01 166.801 103.307C162.005 101.824 156.986 101.195 151.972 101.447C155.621 101.239 159.215 102.417 162.032 104.746C164.849 107.075 166.682 110.383 167.164 114.006C168.483 121.836 171.953 129.144 177.186 135.115C182.419 141.086 189.209 145.484 196.798 147.819C205.475 150.486 214.774 150.342 223.365 147.408C213.795 145.848 205.045 141.068 198.561 133.859Z" fill="#800080"/>
<path d="M136.635 101.93C137.751 106.829 139.712 111.496 142.432 115.721C140.446 112.653 139.681 108.953 140.29 105.349C140.898 101.746 142.834 98.5009 145.717 96.2548C151.839 91.1906 156.435 84.5264 158.994 77.0043C161.552 69.4823 161.972 61.3977 160.208 53.651C158.193 44.789 153.415 36.7967 146.562 30.8276C149.974 39.9475 150.17 49.9592 147.117 59.2059C145.949 62.6968 144.325 66.0182 142.287 69.084C139.158 73.9001 137.027 79.2949 136.019 84.9491C135.011 90.6032 135.146 96.4021 136.418 102.003L136.635 101.93Z" fill="#FFFF19"/>
<path d="M159.7 116.711C158.057 119.978 155.24 122.503 151.813 123.78C148.387 125.056 144.604 124.99 141.224 123.595C133.776 120.803 125.697 120.138 117.892 121.673C110.087 123.209 102.863 126.884 97.0268 132.289C90.3722 138.48 85.8558 146.624 84.1295 155.547C90.3217 148.031 98.8925 142.851 108.426 140.863C112.008 140.13 115.667 139.846 119.319 140.018C125.047 140.315 130.776 139.461 136.169 137.507C141.561 135.553 146.507 132.539 150.716 128.642C154.399 125.222 157.456 121.184 159.749 116.711H159.7Z" fill="black"/>
</svg>
