<svg width="24" height="24" viewBox="0 0 24 24" fill="none" xmlns="http://www.w3.org/2000/svg">
<path fill-rule="evenodd" clip-rule="evenodd" d="M8.29715 17.9134C9.99016 19.2543 11.5456 20 12 20C12.4544 20 14.0098 19.2543 15.7029 17.9134C15.5136 17.5776 15.2791 17.2683 15.0054 16.9946C14.6107 16.5999 14.1422 16.2869 13.6265 16.0733C13.1259 15.8659 12.5903 15.7562 12.0488 15.75L12 15.7497L11.9512 15.75C11.4097 15.7562 10.8741 15.8659 10.3735 16.0733C9.85783 16.2869 9.38928 16.5999 8.9946 16.9946C8.72088 17.2683 8.48641 17.5776 8.29715 17.9134Z" fill="black"/>
<path fill-rule="evenodd" clip-rule="evenodd" d="M15.7046 17.912C15.5153 17.5761 15.2808 17.2668 15.007 16.993C14.6121 16.5981 14.1433 16.2849 13.6274 16.0711C13.1114 15.8574 12.5584 15.7474 12 15.7474C11.4415 15.7474 10.8885 15.8574 10.3726 16.0711C9.85666 16.2849 9.38786 16.5981 8.99297 16.993C8.71919 17.2668 8.48465 17.5761 8.29532 17.912C7.26055 17.0923 6.17453 16.0503 5.25723 14.8203C5.48191 14.5279 5.72586 14.2497 5.98777 13.9878C6.7773 13.1982 7.71462 12.5719 8.7462 12.1447C9.77777 11.7174 10.8834 11.4974 12 11.4974C13.1166 11.4974 14.2222 11.7174 15.2538 12.1447C16.2853 12.5719 17.2227 13.1982 18.0122 13.9878C18.2741 14.2497 18.5181 14.5279 18.7427 14.8203C17.8254 16.0503 16.7394 17.0923 15.7046 17.912Z" fill="#800080"/>
<path fill-rule="evenodd" clip-rule="evenodd" d="M18.747 14.8147C18.5224 14.5225 18.2787 14.2446 18.017 13.983C17.2269 13.1928 16.2888 12.566 15.2564 12.1384C14.224 11.7107 13.1175 11.4906 12 11.4906C10.8825 11.4906 9.776 11.7107 8.7436 12.1384C7.71119 12.566 6.77313 13.1928 5.98296 13.983C5.72129 14.2446 5.47754 14.5225 5.25301 14.8147C4.35833 13.6138 3.62465 12.2341 3.25644 10.7074C4.38086 9.64944 5.68881 8.80354 7.11719 8.21188C8.61234 7.59257 10.2112 7.26355 11.8283 7.24179C11.9395 7.6435 12.0001 8.07821 12.0001 8.54342C12.0025 8.07823 12.0646 7.64355 12.1768 7.24186C13.7922 7.26424 15.3892 7.59322 16.8828 8.21188C18.3112 8.80354 19.6191 9.64944 20.7435 10.7074C20.3753 12.2341 19.6417 13.6138 18.747 14.8147Z" fill="white"/>
<path fill-rule="evenodd" clip-rule="evenodd" d="M11.8278 7.23975C11.2594 5.19009 9.3722 4 7.48504 4C5.8125 4 3 5.14286 3 8.57143C3 9.31015 3.0914 10.0223 3.2559 10.7051C4.38031 9.64735 5.68817 8.80159 7.11641 8.20999C8.61164 7.59065 10.2105 7.26158 11.8278 7.23975ZM20.7441 10.7051C19.6197 9.64735 18.3118 8.80159 16.8836 8.20999C15.3899 7.5913 13.7928 7.26227 12.1773 7.23982C12.7506 5.19012 14.6253 4 16.5 4C18.1875 4 21 4.91429 21 8.57143C21 9.31015 20.9086 10.0223 20.7441 10.7051Z" fill="#FFFF19"/>
</svg>
