<svg width="24" height="24" viewBox="0 0 24 24" fill="none" xmlns="http://www.w3.org/2000/svg">
<path fill-rule="evenodd" clip-rule="evenodd" d="M8.9832 18.431C10.3959 19.4447 11.6079 20 12 20C12.3921 20 13.604 19.4447 15.0168 18.431C14.862 18.1545 14.6696 17.9 14.4446 17.675C14.1236 17.3539 13.7425 17.0993 13.323 16.9255C12.9036 16.7518 12.454 16.6624 12 16.6624C11.546 16.6624 11.0964 16.7518 10.677 16.9255C10.2575 17.0993 9.87638 17.3539 9.55534 17.675C9.33036 17.9 9.13798 18.1544 8.9832 18.431Z" fill="#78C1FF"/>
<path fill-rule="evenodd" clip-rule="evenodd" d="M15.0146 18.4325C14.8599 18.1561 14.6676 17.9018 14.4427 17.6769C14.122 17.3561 13.7411 17.1016 13.322 16.928C12.9029 16.7544 12.4537 16.6651 12 16.6651C11.5463 16.6651 11.0971 16.7544 10.678 16.928C10.2589 17.1016 9.87805 17.3561 9.55726 17.6769C9.33239 17.9018 9.14011 18.1561 8.98542 18.4325C8.13963 17.8258 7.22173 17.0547 6.36465 16.1399C6.59046 15.8201 6.8436 15.5194 7.1217 15.2413C7.76233 14.6007 8.52287 14.0925 9.35989 13.7458C10.1969 13.3991 11.094 13.2207 12 13.2207C12.906 13.2207 13.8031 13.3991 14.6401 13.7458C15.4771 14.0925 16.2377 14.6007 16.8783 15.2413C17.1564 15.5194 17.4095 15.8201 17.6354 16.1399C16.7783 17.0547 15.8604 17.8258 15.0146 18.4325Z" fill="#F391BD"/>
<path fill-rule="evenodd" clip-rule="evenodd" d="M17.6342 16.1411C17.4084 15.8213 17.1552 15.5206 16.8771 15.2425C16.2366 14.602 15.4763 14.094 14.6395 13.7474C13.8027 13.4007 12.9058 13.2223 12 13.2223C11.0942 13.2223 10.1973 13.4007 9.36052 13.7474C8.5237 14.094 7.76335 14.602 7.12287 15.2425C6.84476 15.5206 6.59161 15.8213 6.36581 16.1411C5.57651 15.2988 4.83872 14.3348 4.25624 13.2651C4.39508 13.1082 4.53882 12.9554 4.68732 12.8069C5.64763 11.8466 6.78769 11.0849 8.0424 10.5652C9.29711 10.0454 10.6419 9.77794 12 9.77794C13.3581 9.77794 14.7029 10.0454 15.9576 10.5652C17.2123 11.0849 18.3524 11.8466 19.3127 12.8069C19.4612 12.9554 19.6049 13.1082 19.7437 13.2651C19.1613 14.3348 18.4235 15.2988 17.6342 16.1411Z" fill="#FEFEFE"/>
<path fill-rule="evenodd" clip-rule="evenodd" d="M19.7442 13.2642C19.6055 13.1074 19.4618 12.9547 19.3133 12.8063C18.3529 11.8459 17.2128 11.084 15.958 10.5643C14.7031 10.0445 13.3582 9.777 12 9.777C10.6418 9.777 9.29687 10.0445 8.04205 10.5643C6.78722 11.084 5.64706 11.8459 4.68666 12.8063C4.53823 12.9547 4.39455 13.1074 4.25577 13.2642C3.65315 12.1573 3.21685 10.9374 3.06184 9.62241C4.15635 8.69046 5.39166 7.93392 6.72393 7.38207C8.23311 6.75695 9.84005 6.40554 11.4696 6.3428C11.804 6.96789 12.0001 7.70626 12.0001 8.54342C12.0044 7.70636 12.2022 6.96807 12.5365 6.34304C14.1639 6.40641 15.7688 6.75772 17.2761 7.38207C18.6083 7.93392 19.8437 8.69047 20.9382 9.62241C20.7832 10.9374 20.3469 12.1573 19.7442 13.2642Z" fill="#F391BD"/>
<path fill-rule="evenodd" clip-rule="evenodd" d="M11.4727 6.34866C10.6735 4.84931 9.07927 4 7.48504 4C5.8125 4 3 5.14286 3 8.57143C3 8.93051 3.0216 9.28331 3.06268 9.62953C4.15746 8.6968 5.39329 7.9397 6.72621 7.38759C8.23563 6.76236 9.84288 6.41106 11.4727 6.34866ZM20.9373 9.62954C19.8425 8.69681 18.6067 7.9397 17.2738 7.38759C15.7662 6.76314 14.1611 6.41194 12.5334 6.34889C13.3324 4.8494 14.9162 4 16.5 4C18.1875 4 21 4.91429 21 8.57143C21 8.93051 20.9784 9.28333 20.9373 9.62954Z" fill="#78C1FF"/>
</svg>
